<svg xmlns="http://www.w3.org/2000/svg" width="140.31mm" height="76.07mm" viewBox="0 0 397.74 215.62"><defs><style>.cls-1,.cls-5{fill:#87101d;}.cls-1,.cls-3,.cls-4,.cls-5{stroke:#000;stroke-miterlimit:10;}.cls-2,.cls-3{fill:#fff;}.cls-3{stroke-width:1.65px;}.cls-4{fill:none;stroke-width:1.85px;}.cls-5{stroke-width:2px;}</style></defs><g id="Layer_7" data-name="Layer 7"><path class="cls-1" d="M98.46,104.35C113.92,68.23,171,46,241.83,46c17.22,0,54,7.38,69.38,10.3,0,0-30.12,42.26-23.31,80.48.86,4.79,78.81-52.17,78.81-52.17,21.92,14.21,24.7,23,24.7,43.08,0,45.12-67,81.69-149.58,81.69-55.53,0-65.72,6.81-126.92-42.44"/><circle class="cls-2" cx="263.49" cy="82.68" r="19.71"/><polygon class="cls-3" points="308.55 110.17 311.56 122.77 319.25 117.47 308.55 110.17"/><polygon class="cls-3" points="321.94 100.94 324.95 113.54 332.63 108.24 321.94 100.94"/><polygon class="cls-3" points="335.46 91.62 338.47 104.21 346.15 98.92 335.46 91.62"/><polygon class="cls-3" points="347.69 83.19 350.7 95.78 358.38 90.49 347.69 83.19"/><path class="cls-4" d="M299.88,54.86s25.83-78.1,80.3-38.47"/><path class="cls-5" d="M217.85,126l-35.07-15.88s-12.09,22.3,8.74,48.54L220.36,140"/><path class="cls-1" d="M100.35,103.08c-2.39-1.2-2.73-.63-8.39-4.15L21.09,54.86s-35.38,46.35-2.13,117l28.15-13.23a64.1,64.1,0,0,1,71.63,11.74l26.91,19.52"/></g></svg>