<svg xmlns="http://www.w3.org/2000/svg" width="70.14mm" height="177.41mm" viewBox="0 0 198.83 502.9"><defs><style>.cls-1{fill:#0b0146;}.cls-2,.cls-3{fill:none;stroke:#0b0146;stroke-miterlimit:10;}.cls-2{stroke-width:9.69px;}.cls-3{stroke-width:8px;}</style></defs><g id="Layer_7" data-name="Layer 7"><path class="cls-1" d="M139.64,266.26c.62-.12-.85,0-.43.06a2.67,2.67,0,0,0,.4,0c.86,0-.81-.26-.12,0a2.83,2.83,0,0,0,.7.21c-.6,0-.78-.38-.36-.13l.45.26.37.25c.35.22-.11.17-.31-.24.1.2.55.48.71.65s.37.39.55.59.26.36.4.49c-.32-.28-.4-.54-.05-.05a25.71,25.71,0,0,1,2.22,4c.27.6,0-.09-.07-.17a4.27,4.27,0,0,1,.29.73c.13.33.25.66.37,1,.3.85.56,1.72.8,2.59s.42,1.68.59,2.53c.08.41.16.81.22,1.21,0,.23.06.45.11.67s0,.18,0-.31c0,.13,0,.27,0,.4a30.81,30.81,0,0,1,.17,5c0,.32-.06.63-.08.95-.07.84.17-.88,0-.07,0,.2-.07.39-.1.59a34.37,34.37,0,0,1-.84,3.47c-.29,1-.63,2-1,3,0-.05-.4,1-.2.51s-.24.54-.22.5q-.34.76-.72,1.53c-3.86,7.86-9.79,14.49-13.35,22.52A41,41,0,0,0,126.36,334a29.69,29.69,0,0,0,2.86,13.63,44.53,44.53,0,0,0,6.79,9.83c1.2,1.4,2.43,2.76,3.64,4.15.58.66,1.15,1.33,1.71,2l.92,1.14c.1.13.41.56,0-.05.17.24.35.47.53.71a34.93,34.93,0,0,1,3,4.84c.2.39.39.79.58,1.19l.24.54c.42.91-.27-.72.09.22s.72,1.88,1,2.85a45.34,45.34,0,0,1,1.41,5.74c.08.47.16.94.23,1.41,0,.2.11.92,0,.11,0,.21,0,.43.08.64.12,1.05.2,2.12.25,3.18a51.39,51.39,0,0,1-.06,6.08c0,.53-.08,1.06-.13,1.58,0,.21,0,.43-.07.64,0,0-.14,1-.06.45s-.06.44-.07.44c0,.21-.06.42-.1.62-.09.57-.2,1.14-.32,1.7a40.9,40.9,0,0,1-1.62,5.75c-.16.43-.33.84-.49,1.26s.37-.8,0,.08l-.24.53c-.42.9-.87,1.77-1.36,2.63a48.79,48.79,0,0,1-3.09,4.7c-.28.4-.58.79-.87,1.18l-.36.47c.49-.64.07-.1-.05.06-.6.77-1.21,1.53-1.82,2.29a84.32,84.32,0,0,0-7,9.55,32,32,0,0,0-3.09,26.23,36,36,0,0,0,6.86,12.36,43.84,43.84,0,0,0,11.05,8.95c1.85,1.1,3.76,2.12,5.66,3.14a3.7,3.7,0,1,0,3.73-6.39c-2-1.07-4-2.15-5.95-3.32-.89-.54-1.76-1.09-2.62-1.68-.48-.33-1-.66-1.42-1l-.56-.42c.54.42-.34-.28-.36-.3a36,36,0,0,1-4.92-5c-.39-.47.49.7-.1-.14-.12-.18-.25-.35-.38-.53-.31-.45-.62-.91-.91-1.37a32.85,32.85,0,0,1-1.63-3l-.29-.62c0,.05-.43-1-.23-.52s-.23-.59-.21-.53l-.24-.66a30.81,30.81,0,0,1-1-3.4c-.14-.58-.26-1.16-.36-1.75,0-.24-.08-.48-.11-.71.1.68,0-.1,0-.27a26.77,26.77,0,0,1-.13-3.8c0-.49,0-1,.09-1.46,0,.05.12-1.12,0-.52s.08-.48.08-.47a26.22,26.22,0,0,1,.69-3c.25-.87.56-1.71.88-2.55s-.33.69.09-.2c.08-.18.16-.36.25-.53q.33-.74.72-1.44a41.48,41.48,0,0,1,3-4.77c.5-.71,1-1.4,1.55-2.1s-.33.41,0-.05l.45-.57.9-1.15a102.33,102.33,0,0,0,7.22-9.72c4.44-7.17,6.35-15.67,6.39-24s-1.75-17-6-24.24a65,65,0,0,0-7.39-9.55c-1.21-1.37-2.44-2.75-3.6-4.17-.31-.37-.61-.75-.91-1.12.56.69-.25-.34-.38-.52-.6-.82-1.17-1.66-1.69-2.52s-.89-1.52-1.28-2.3l-.26-.54-.17-.37c.23.52-.15-.39-.16-.4-.11-.28-.21-.57-.31-.85a20.56,20.56,0,0,1-1.19-5.84,28,28,0,0,1,0-3.55c0-.49.08-1,.15-1.48-.1.76.08-.44.09-.48.06-.36.13-.73.21-1.09a40.28,40.28,0,0,1,2.08-6.7c.43-1.09-.16.34.12-.3l.38-.83c.23-.5.46-1,.71-1.48.53-1.07,1.1-2.12,1.69-3.16,1.1-1.9,2.31-3.74,3.53-5.57a109.86,109.86,0,0,0,6.81-11,40.72,40.72,0,0,0,4.34-13.48,33.08,33.08,0,0,0-.72-10.63,36.7,36.7,0,0,0-3.76-10.28c-1.65-2.94-3.93-5.69-7.14-6.93a8.34,8.34,0,0,0-4.64-.31,3.73,3.73,0,0,0-2.59,4.55,3.8,3.8,0,0,0,4.56,2.59Z"/><path class="cls-1" d="M105.52,266.15c.64-.12-.88,0-.41.05l.42,0c.19,0,1.13.09.37,0s.2.06.4.11,1.06.26,1.08.37-.89-.44-.33-.13l.37.19c.31.16.62.34.92.52l.92.62c.37.26-.08.15-.2-.16a3,3,0,0,0,.55.44,35.24,35.24,0,0,1,3.38,3.53c.37.41-.52-.73,0,0,.1.14.21.28.31.43.26.36.51.72.75,1.09.49.75.94,1.52,1.36,2.31q.28.54.54,1.08c.12.27.74,1.25.21.45a9.2,9.2,0,0,1,.85,2.46c.21.77.33,1.55.5,2.33.12.53-.08-1,0-.14,0,.16,0,.32,0,.48a13.46,13.46,0,0,1,0,1.42,3.64,3.64,0,0,0-.07.92c-.16-.6.11-.66,0-.13,0,.3-.1.59-.16.89-.24,1.14-.54,2.28-.89,3.39s-.66,1.94-1,2.89.31-.64-.15.36c-.09.2-.18.41-.28.61-.25.56-.52,1.11-.8,1.65-4,7.78-9.81,14.39-13.27,22.44a40.06,40.06,0,0,0-3.57,14.95,29.52,29.52,0,0,0,3,13.54,45.8,45.8,0,0,0,6.71,9.59c1.25,1.45,2.54,2.88,3.8,4.33.57.66,1.13,1.32,1.68,2,.31.38.61.75.91,1.14-.53-.68.32.43.47.65a34,34,0,0,1,3,4.82c.2.4.38.79.57,1.19,0,0,.39.9.16.37s.15.37.16.39c.37.93.7,1.88,1,2.84a46.23,46.23,0,0,1,1.37,5.72c.09.51.17,1,.24,1.55-.13-.87.06.52.08.74.12,1.11.2,2.21.24,3.32a52.9,52.9,0,0,1-.11,6c0,.52-.09,1.05-.15,1.57,0,.28-.19,1.38-.07.58-.16,1.08-.35,2.15-.58,3.22a41.64,41.64,0,0,1-1.66,5.69l-.21.55s-.38.92-.15.38-.16.35-.17.37c-.08.18-.16.35-.25.53-.42.89-.88,1.75-1.37,2.6a51.76,51.76,0,0,1-3.17,4.76L112,411l-.25.32c.36-.45-.23.3-.24.31l-1.8,2.27a78.85,78.85,0,0,0-7,9.62,32,32,0,0,0-2.83,26.07A35.93,35.93,0,0,0,106.85,462a44.15,44.15,0,0,0,11,8.86c1.83,1.09,3.7,2.09,5.57,3.09a3.7,3.7,0,0,0,3.73-6.39c-2-1-3.94-2.11-5.85-3.26-.87-.53-1.74-1.07-2.58-1.64l-1.4-1-.55-.42-.35-.27a35.2,35.2,0,0,1-5-5c-.44-.53-.08-.1,0,0l-.47-.64c-.28-.4-.55-.8-.81-1.21a32.48,32.48,0,0,1-1.72-3c-.22-.46-.44-.93-.64-1.39.27.62,0-.07-.09-.23s-.21-.54-.31-.81a34.75,34.75,0,0,1-1-3.34c-.13-.57-.26-1.15-.36-1.73,0-.23-.21-1.46-.13-.77a27.49,27.49,0,0,1-.2-3.74c0-.54,0-1.08.08-1.62,0-.29.06-.58.08-.88,0-.63-.15.88,0-.13a31,31,0,0,1,.65-3c.26-.91.56-1.81.9-2.69.08-.19.36-.82,0-.06l.24-.54c.22-.48.45-1,.7-1.43a43.13,43.13,0,0,1,2.93-4.76c.52-.75,1.06-1.48,1.62-2.2.12-.16.53-.69,0-.05.12-.15.24-.3.35-.46l1.08-1.36a108.26,108.26,0,0,0,7.18-9.62,45.9,45.9,0,0,0,6.53-24c.08-8.34-1.65-17.06-5.9-24.31a62.49,62.49,0,0,0-7.28-9.5c-1.26-1.44-2.54-2.86-3.76-4.34l-.73-.89-.12-.16-.35-.45c-.56-.77-1.11-1.56-1.62-2.36s-1-1.57-1.36-2.39c-.21-.39-.39-.79-.58-1.19-.41-.86.18.49,0-.07-.13-.33-.26-.65-.38-1a25.4,25.4,0,0,1-.78-2.67c-.12-.53-.22-1.06-.32-1.59,0-.09-.1-.72,0-.13,0-.37-.08-.74-.11-1.11a26.73,26.73,0,0,1,0-3.69c0-.49.08-1,.12-1.46.11-1.18-.14.69.07-.47.06-.36.12-.72.19-1.08a37.48,37.48,0,0,1,2-6.64s.46-1.13.17-.46c.1-.23.2-.45.29-.67.25-.55.5-1.09.77-1.63.51-1.06,1.07-2.11,1.65-3.14,1-1.86,2.21-3.64,3.39-5.42a126.15,126.15,0,0,0,6.87-11,40.64,40.64,0,0,0,4.54-13.27A20.86,20.86,0,0,0,123,274.35a32.19,32.19,0,0,0-6.2-9.58,19.25,19.25,0,0,0-8.34-5.57,10.29,10.29,0,0,0-4.9-.19,3.72,3.72,0,0,0-2.58,4.55,3.8,3.8,0,0,0,4.55,2.59Z"/><path class="cls-1" d="M49.47,281a34.74,34.74,0,0,1-1.29,4.88c-.26.75-.55,1.5-.85,2.24s.1-.21.09-.21a4.45,4.45,0,0,1-.29.66c-.2.44-.4.88-.61,1.31a90.23,90.23,0,0,1-5,8.72c-3.7,5.91-7.59,11.69-10.08,18.24A32.19,32.19,0,0,0,30.7,338c2.16,6.85,6.42,12.52,10.78,18.11L43,358c.39.5-.09-.13-.14-.18a4.05,4.05,0,0,1,.43.57c.27.34.53.69.8,1,1,1.31,1.93,2.63,2.83,4a49.76,49.76,0,0,1,2.55,4.34c.19.36.37.72.54,1.09.1.21.56.92.5,1.1,0,0-.34-.85-.09-.2.09.23.19.45.28.68.16.43.31.86.46,1.29a30.86,30.86,0,0,1,1.25,5.1c0,.28.32,1,0,.08a3.57,3.57,0,0,1,.06.54c.05.53.1,1,.14,1.57.07,1.09.11,2.19.11,3.28s0,1.87-.12,2.81c0,.45-.07.89-.12,1.34,0,.18-.06.36-.07.53.07-1.05,0-.06,0,.18a35.81,35.81,0,0,1-1.2,5c-.24.77-.52,1.53-.81,2.28-.07.18-.16.37-.22.55-.18.51.38-.85,0-.11-.19.44-.38.87-.59,1.31-.69,1.47-1.47,2.9-2.29,4.3-1.72,2.92-3.64,5.71-5.53,8.52-4.26,6.32-8.79,13-10.47,20.55a31.51,31.51,0,0,0,3.33,22.26c3.74,6.72,9.62,12.13,16,16.24,1.54,1,3.14,1.9,4.77,2.74a3.7,3.7,0,1,0,3.74-6.39c-1.71-.89-3.39-1.84-5-2.89-.72-.47-1.43-.95-2.13-1.45-.37-.26-.73-.53-1.09-.8-.53-.4,0-.25,0,0a5.54,5.54,0,0,0-.63-.5,45.91,45.91,0,0,1-4-3.64c-.57-.59-1.13-1.19-1.67-1.81l-.82-1c-.13-.15-.72-.78-.05-.05-.17-.19-.31-.41-.46-.61a33.86,33.86,0,0,1-2.66-4.24c-.19-.36-.37-.73-.55-1.11-.11-.22-.21-.44-.31-.67s-.32-.32.08.21a9.29,9.29,0,0,1-.92-2.54c-.24-.78-.45-1.57-.62-2.37-.07-.36-.14-.73-.2-1.09a6,6,0,0,0-.1-.61c.07.53.09.66,0,.37,0-.12,0-.25,0-.37a26.92,26.92,0,0,1,0-5.31l.06-.51c.09-.88-.11.63,0,.07s.14-.87.22-1.31c.19-.94.42-1.87.7-2.79s.6-1.8.94-2.69c.25-.64,0-.06,0,.06.12-.27.24-.55.37-.82.23-.5.48-1,.73-1.5A98.69,98.69,0,0,1,46.57,415c3.82-5.77,7.87-11.35,10.54-17.78a41.48,41.48,0,0,0,2.3-23c-1.19-6.81-4.69-12.88-8.77-18.35-1.14-1.53-2.31-3-3.48-4.53l-.66-.84-.37-.47-.15-.19c.36.44-.31-.42-.43-.57l-.86-1.14A56.09,56.09,0,0,1,39.47,340c-.18-.36-.35-.71-.52-1.08l-.19-.43c-.36-.8-.06,0,0,0a15.58,15.58,0,0,1-.83-2.28c-.26-.78-.48-1.58-.67-2.39-.1-.42-.19-.84-.27-1.27,0-.21-.08-.43-.11-.65l-.06-.38c-.06-.42-.05-.34,0,.22-.18-.21-.11-1-.13-1.27s0-.74-.05-1.12c0-.85,0-1.7,0-2.56,0-.4.06-.79.11-1.19,0-.1.07-.89,0-.22s0-.11,0-.21c.13-.82.3-1.63.5-2.43a34.67,34.67,0,0,1,1.5-4.59c0-.1.39-.76.09-.22s0-.12.09-.21c.16-.37.33-.73.49-1.09.36-.76.74-1.51,1.13-2.25,1.53-2.92,3.28-5.72,5-8.5,3.7-5.83,7.47-11.68,9.69-18.26A33.93,33.93,0,0,0,56.61,283,3.78,3.78,0,0,0,54,278.44c-1.82-.41-4.18.55-4.56,2.59Z"/><path class="cls-1" d="M84,266.61c.74-.16-.84,0-.33,0a4.18,4.18,0,0,0,.5,0c.06,0,.38,0,.39,0s-1-.28-.46,0a2.11,2.11,0,0,0,.38.1c.69.1-.66-.38-.28-.13a10,10,0,0,0,.9.52c.42.2-.71-.69-.19-.15.1.11.23.2.33.31.26.24.49.5.73.77.11.11.49.47.08.08s.07.11.14.22c.25.36.49.74.71,1.13s.36.65.52,1,.69,1.64.32.67c.33.87.65,1.74.91,2.63s.49,1.89.68,2.85c.1.49.17,1,.25,1.47.12.66-.09-1,0,.12,0,.28.06.56.08.84a31.9,31.9,0,0,1,0,6.18c0,.22-.05.43-.07.65.11-.89,0-.17,0,0-.12.67-.23,1.35-.38,2-.24,1.16-.54,2.32-.88,3.47a44.2,44.2,0,0,1-2.27,6c-1,2.07-2,4.09-3.16,6.08-2.23,3.95-4.69,7.77-6.76,11.81a62.1,62.1,0,0,0-5.4,14.12c-2.33,10-1.13,20.18,4.22,29a105.53,105.53,0,0,0,7.33,10l.4.51c.4.51-.56-.73.08.1l.78,1c.65.87,1.28,1.75,1.89,2.65a42.64,42.64,0,0,1,3,5c.21.43.42.86.61,1.29l.33.74c-.06-.14-.29-.74,0,0,.38,1,.74,1.95,1.07,2.95A53.88,53.88,0,0,1,92,388.75c.2,1,.37,2,.51,2.95,0,.2.13,1,0,.18,0,.23.06.47.08.7.07.59.13,1.18.18,1.78.19,2.2.27,4.41.24,6.61s-.21,4.39-.45,6.58c0,.15-.1.77,0,0,0,.23-.07.47-.1.7-.08.52-.16,1-.26,1.55-.19,1.08-.41,2.15-.67,3.21a46.62,46.62,0,0,1-1.82,5.89l-.3.76c0-.13.32-.73,0-.05l-.54,1.17q-.73,1.52-1.56,3c-3.89,6.86-9.31,12.77-12.71,19.92a39.42,39.42,0,0,0-2.06,28.87,41.6,41.6,0,0,0,6.78,13.06,46.71,46.71,0,0,0,11.09,9.94c1.81,1.22,3.69,2.35,5.56,3.48a3.93,3.93,0,1,0,4-6.78c-2-1.19-4-2.39-5.87-3.69l-1.22-.84-.75-.55-.35-.26-.5-.39-.58-.48c-.49-.41-1-.83-1.45-1.26-.87-.8-1.71-1.64-2.5-2.52-.41-.46-.81-.92-1.2-1.39-.07-.09-.59-.78-.28-.36-.21-.27-.4-.55-.6-.83a36.25,36.25,0,0,1-3.2-5.66c0,.07-.46-1.07-.26-.58s-.12-.33-.16-.42c-.21-.54-.41-1.08-.6-1.63-.42-1.25-.78-2.52-1.08-3.8-.12-.52-.23-1-.33-1.57,0-.26-.09-.53-.14-.79,0,.1-.17-1.21-.1-.68s-.09-.79-.08-.68c0-.27,0-.54-.07-.81,0-.68-.08-1.36-.1-2a35.2,35.2,0,0,1,.14-3.7c0-.25,0-.5.08-.75.12-1.18-.1.45,0-.24s.22-1.31.36-1.95A35.37,35.37,0,0,1,81,448.5c-.33.81.25-.51.34-.71.21-.45.43-.88.65-1.32.47-.91,1-1.81,1.49-2.69,1-1.7,2.12-3.35,3.25-5,2.28-3.29,4.68-6.51,6.73-9.94a54.73,54.73,0,0,0,7.31-25.2,61.09,61.09,0,0,0-3.88-26.07,49.69,49.69,0,0,0-6.21-11c-1.32-1.79-2.69-3.53-4.06-5.27l-.89-1.14c-.45-.58-.06-.08,0,0l-.39-.51c-.65-.86-1.29-1.72-1.9-2.59A44.55,44.55,0,0,1,80.33,352c-.23-.44-.45-.89-.66-1.34L79.4,350c.31.69.06.15,0,0-.41-1.09-.8-2.18-1.11-3.3s-.5-2.14-.7-3.23c0-.07-.1-.7,0-.18,0-.29-.07-.57-.09-.85-.08-.78-.12-1.55-.14-2.33a30.71,30.71,0,0,1,.57-7.06A49.26,49.26,0,0,1,80,325.75c.21-.57.43-1.14.65-1.71.1-.25.2-.49.31-.74-.22.51,0-.1.07-.17.54-1.21,1.09-2.4,1.69-3.57,2-4.06,4.51-7.89,6.76-11.84,4.69-8.25,8.6-17.51,8.15-27.19a36.39,36.39,0,0,0-3-13c-1.37-3.13-3.58-6.43-6.8-7.86a9.4,9.4,0,0,0-6-.64,3.94,3.94,0,0,0-2.74,4.83A4,4,0,0,0,84,266.61Z"/><path class="cls-2" d="M99.05,13C22.64,41,23.76,262.58,23.76,262.58H172.17S173.29,41,96.88,13"/><polygon class="cls-3" points="188.34 101.31 146.51 67.08 166.95 150.95 188.34 101.31"/><polygon class="cls-3" points="9.33 97.63 28.94 148 52.35 64.91 9.33 97.63"/></g></svg>